<?xml version="1.0" encoding="UTF-8"?><svg id="Camada_2" xmlns="http://www.w3.org/2000/svg" viewBox="0 0 389.52 279.6"><defs><style>.cls-1,.cls-2,.cls-3{fill:#fff;}.cls-4{fill:#fadd02;}.cls-2{font-family:Gilroy-Bold, Gilroy-Bold;font-size:144.86px;}.cls-3{font-family:Gilroy-Regular, Gilroy-Regular;font-size:26.5px;letter-spacing:.1em;}.cls-5{letter-spacing:-.02em;}.cls-6{letter-spacing:-.02em;}</style></defs><g id="Camada_1-2"><g><text class="cls-2" transform="translate(0 230.58)"><tspan x="0" y="0">t</tspan><tspan class="cls-6" x="55.77" y="0">r</tspan><tspan x="104.59" y="0">a</tspan><tspan class="cls-5" x="195.27" y="0">v</tspan><tspan x="269.58" y="0">el</tspan></text><g><path class="cls-1" d="M218.78,114.03h0c-1.17,1.23-3.1,1.34-4.4,.24l-47.6-40.3c-1.91-1.68-3.21-3.94-3.71-6.43l-.67-3.41c-.45-2.28,1.49-4.32,3.79-3.98l3.44,.51c2.52,.37,4.84,1.56,6.6,3.39l42.57,45.58c1.16,1.24,1.15,3.18-.02,4.41Z"/><g><g><polygon class="cls-1" points="178.35 121.78 190.48 91.12 180.17 81.3 173.39 117.06 178.35 121.78"/><polygon class="cls-1" points="203.91 125.01 210.41 108.57 204.89 103.31 201.25 122.48 203.91 125.01"/></g><g><polygon class="cls-1" points="224.55 73.27 194.51 86.88 184.21 77.07 219.59 68.54 224.55 73.27"/><polygon class="cls-1" points="229.03 98.64 212.92 105.94 207.39 100.68 226.36 96.11 229.03 98.64"/></g></g></g><path class="cls-4" d="M293.51,28.76h-52.34V14.78c0-8.15-6.63-14.78-14.78-14.78h-63.26c-8.15,0-14.78,6.63-14.78,14.78v13.98h-52.34c-18.41,0-33.38,14.97-33.38,33.38v56.4h12.02V62.13c0-11.78,9.58-21.36,21.36-21.36h12.59V118.54h12.02V40.78h148.28V118.54h12.02V40.78h12.59c11.78,0,21.36,9.58,21.36,21.36v56.4h12.02V62.13c0-18.4-14.97-33.38-33.38-33.38ZM160.37,14.78c0-1.52,1.24-2.76,2.76-2.76h63.26c1.52,0,2.76,1.24,2.76,2.76v13.98h-68.77V14.78Z"/><text class="cls-3" transform="translate(67.05 273.24)"><tspan x="0" y="0">Sua agência aqui</tspan></text></g></g></svg>